<?xml version="1.0" standalone="no"?><!DOCTYPE svg PUBLIC "-//W3C//DTD SVG 1.1//EN" "http://www.w3.org/Graphics/SVG/1.1/DTD/svg11.dtd"><svg t="1547892506897" class="icon" style="" viewBox="0 0 1024 1024" version="1.1" xmlns="http://www.w3.org/2000/svg" p-id="770" xmlns:xlink="http://www.w3.org/1999/xlink" width="200" height="200"><defs><style type="text/css"></style></defs><path d="M68.56018261 732.35448149c7.3711525-1.98977991 147.80376405-48.48240981 147.80376406-48.48240981s-13.48486485-42.56313458-15.16727182-50.62238435c-2.06196622-9.42962574-5.54670194-9.66597746-8.24670208-10.0467018l-0.733506 0-144.72420352-1.27723179C47.49342834 621.92691769 63.70390813 704.48824434 68.56018261 732.35448149z" p-id="771"></path><path d="M411.34843904 682.78112711c0 0-329.53974329 136.59509533-337.73870877 139.24852395-3.27050467 21.13428366-18.86390841 87.39547933-18.8639084 87.39547932l140.19509589 0c0 0 11.9223808 0.19094414 14.24282169-9.23984555 9.33764665-38.48577251 15.71332551-73.36921657 16.13829348-74.69418496 0.9954725-3.46144882 3.05743872-8.62626247 9.17231616-11.70931484 3.22276921-1.70452765 242.11748523-122.75511979 242.11748522-122.75511978s0-24.02872093 0-41.0879727l-65.26339527 0L411.34843904 682.78112711z" p-id="772"></path><path d="M142.04699307 367.55406279c0-14.73764693-0.06985728-24.78434873-0.18861625-31.46740281-23.12988558-11.46947015-96.61553209-49.37426034-112.6828032-57.29030257-0.09430813 14.82380515-0.16649443 31.31837213-0.16649444 31.31837212l0 0.14204359c-0.09430813 0.37956039-0.09430813 0.85226382-0.09430812 1.32496725 0 5.12057003 1.13751609 15.73661241 6.99042702 19.10026013 7.98706461 4.59780096 89.26766649 47.77801159 106.35602489 57.06442865-0.2142299-2.89210937-0.2142299-5.87619669-0.2142299-8.95808625 0-0.18861625 0-0.32949589 0-0.47270343C142.04699307 374.38032441 142.04699307 370.96894009 142.04699307 367.55406279z" p-id="773"></path><path d="M1018.31524352 365.42340323c-0.26313045-1.23298816-1.94204445-2.60452807-4.64320853-4.07619697-11.78033721-0.47270343-64.98279993-3.03298901-122.30803115-5.82962517-2.34372551 44.50634297-6.53868146 120.28914347-7.55743971 125.45395598-0.61474816 3.03415296-7.43984583 16.4468315-16.77749135 33.46300359 2.41707691 1.66028515 4.5745152 2.98408846 6.11720647 3.93182435 5.49430841 3.13195406 15.9683072 4.69443811 20.66274418-0.61358307 3.00737422-3.60349355 20.23661227-23.93674183 40.16468651-47.68021049 28.36921344-33.79366343 60.47930595-71.99418482 68.13338169-80.66818276l5.7341531-6.3500652c7.89042745-8.72173454 10.76041501-12.27399851 10.760415-15.87632698C1018.60049579 366.60865479 1018.52714439 366.04047929 1018.31524352 365.42340323z" p-id="774"></path><path d="M381.93834667 557.75213795c-14.31384291 22.41850141-33.48396146 34.88228011-54.21889195 34.88228011-9.76261347 0-19.19689728-2.88861639-27.79987285-8.20245845 0 14.36274347 0 26.97089479 0 31.56986084 12.82121728 0 163.75227733 0 176.6910885 0 0-3.4148773 0-11.47179918 0-21.51850098-26.49236935-13.4592512-57.53713323-29.24243399-89.67167659-45.64269512C385.30315833 551.92251278 383.74067541 554.90776519 381.93834667 557.75213795z" p-id="775"></path><path d="M369.61661155 550.02587591c1.53919829-2.46597746 3.05743872-5.06934045 4.40569288-7.77283356-36.68111587-18.67412821-74.00725049-37.67775232-106.54347606-54.1699914 3.08072448 50.52109141 28.93389597 90.00350037 60.24062635 90.00350038C343.33497913 578.08655133 358.12152661 568.2249728 369.61661155 550.02587591z" p-id="776"></path><path d="M514.26630087 519.74256185l-2.77567943-1.51707648c-5.82496825-2.46597746-218.77336861-107.53894855-355.03664014-174.88875975 0.04890055 6.06714197 0.04890055 13.93544761 0.04890055 23.9821494 0 3.46144882 0 7.06144939 0 10.99676672 0 0.14320867 0 0.28408832 0 0.47270343 0 39.0551131 12.82238123 44.31306979 19.73945799 47.11203499 9.1490304 3.79094471 300.08191431 152.18617003 344.13767453 174.65240803-0.07218631-1.04553699-0.07218631-2.32626176-0.07218632-3.55692088l1.9676581-73.55899677C519.12373931 522.39599047 516.35038891 520.87775005 514.26630087 519.74256185z" p-id="777"></path><path d="M555.0957989 485.42845838c15.99624989-20.66623715 90.00350037-106.25938773 93.89341013-110.90725433 2.31811186-2.98408846 35.09534606-43.74372921 91.32846876-40.90168547 39.57206016 1.99327289 171.50066119 8.43881017 237.80610048 11.5183707-9.05239438-4.02846037-16.70879801-7.39210923-16.708798-7.39210923l-97.6098395-43.32225422-30.14243442-13.25666304-58.41733974-25.85550052c-34.09754453-15.23596515-69.38499982-30.90039125-104.19858546-46.02109041l-63.46106652-28.17477632c-30.40207189-13.65019534-61.73208803-27.67995107-92.84670919-40.78525554-14.00646997-5.78188971-63.72186795-28.55317163-77.18111915-34.69133483-27.98965305-12.58370048-56.90026325-25.64243456-86.92393984-35.0487734-7.75187683-2.4194048-43.17904669-9.26662429-51.87516643-9.76377856l-84.45912747-4.1705051c-49.17167331-2.39379115-104.88668387-5.19042731-117.20841898-5.92626233-37.91526798-2.34489059-55.99677099 0.02677874-62.34800015 20.73725952-3.53130723 11.56494222-21.63609486 104.86106909-28.08279723 129.76883371-1.63350642 6.06597689-2.3693403 11.04333824-2.3693403 15.0950855 0 14.09961301 8.38990962 18.01048064 18.31901867 22.63156736l4.40802077 2.10970283c3.79094471 1.91992263 492.10444003 241.89277525 501.96252558 246.44516978-0.09430813 0-0.1397157-0.09663602-0.1397157-0.09663602l0.1397157 0.09663602 0 0 3.95743914 1.98977991C539.40808818 493.10698382 544.60084338 495.90245717 555.0957989 485.42845838z" p-id="778"></path><path d="M739.53410731 348.12314283c-49.2659803-2.55795655-78.98344789 35.02548765-79.26870016 35.40504803l-0.16532936 0.18861625c-0.89767139 1.04320797-90.52277646 109.1037605-105.64347562 128.49043798l-0.21073692 0.37956038-0.31086706 0.28408832c-6.25575709 6.34890126-12.01319595 9.66830649-17.2280741 11.08874582-0.64269085 27.4866779-1.89663687 73.36805262-1.89663687 73.36805262 0 0.37839645-0.06869333 0.75679175-0.06869333 0.99430742 0 10.04670179 4.02846037 15.7389403 23.078656 17.1605447 11.42173469 0.89767139 192.56858055 6.11254955 206.26418232 5.92276936 11.42173469-0.19094414 20.30879858-1.09094457 30.26119225-12.75019492 11.85019449-13.88538311 71.68681074-121.33002354 75.31359005-130.80854869 0.87787861-6.25692217 4.38240711-69.29418467 7.22677987-123.08577963C820.62958592 352.05613113 763.39982677 349.40386759 739.53410731 348.12314283zM792.73540494 438.79145586c-4.68978005 14.26377842-24.95084317 84.45679843-24.95084316 84.45679843s-2.58473529 12.32173397-8.88822898 16.30245888c-6.18357077 4.31604167-18.19793181 3.17852558-18.19793181 3.17852558-11.75821539-0.47619641-23.62936775-0.99780039-35.36080554-1.47050496-19.40763421-0.61824114-66.4940544-2.55795655-70.61565895-2.65575651-4.31720562 0-13.29624974-2.03868046-15.16377885-6.77386809-2.49042717-6.11371349-0.07335026-13.70025984 1.60789163-19.76507278 2.30064697-8.15239395 4.85976747-16.25938034 7.15459357-24.40944526 4.88421831-17.10931627 9.7905573-34.07658781 15.07412764-51.0927599 2.51021995-8.43764622 3.17619655-16.91953607 10.61953536-23.12988558 7.79029845-6.68188899 17.55756885-5.77956067 27.01048036-5.63751708 9.12458069 0.18745117 18.31785358 0.28408832 27.42031246 0.5681755 19.24113977 0.66364871 38.53350912 1.563648 57.82354944 2.4170769 5.80284643 0.33298887 11.56377827 0.5681755 17.39340344 0.90116438C799.20655701 412.48537373 797.4065573 424.42871239 792.73540494 438.79145586z" p-id="779"></path><path d="M299.91958073 649.93869255c0 14.73415395 0 22.69676771 0 22.69676772l-250.83689074 86.26378524-1.32729628-7.72742599c-8.24670208-46.30517874-20.73493049-119.52885874-22.7980618-129.34386574L2.08941397 621.82795264c0 35.30957597 0 256.03197497 0 287.59601379l27.44243428 0c3.05627477-19.09909618 19.12354589-89.15123655 19.28887637-90.23752419l0.71254813-4.31254869c0 0 337.66652245-139.29626055 347.40701525-142.47012808 0-6.30465763 0-9.33881059 0-22.46507292L299.91958073 649.93869255z" p-id="780"></path></svg>